<svg version="1.1" id="Layer_1" xmlns="http://www.w3.org/2000/svg" xmlns:xlink="http://www.w3.org/1999/xlink" x="0px" y="0px"
	 viewBox="0 0 50 50" style="enable-background:new 0 0 50 50;" xml:space="preserve">
<path d="M47.4,22.4c-8.1-3.9-16-11.7-19.9-19.8C27,1.5,26,1,25,1c-1,0-2,0.5-2.5,1.6c-3.9,8.1-11.8,15.9-19.9,19.8
	C1.5,22.9,1,24,1,25c0,1,0.5,2.1,1.6,2.6c8.1,3.9,16,11.7,19.9,19.8C23,48.5,24,49,25,49c1,0,2-0.5,2.5-1.6
	c3.9-8.1,11.8-15.9,19.9-19.8C48.5,27.1,49,26,49,25C49,24,48.5,22.9,47.4,22.4z"/>
</svg>
